# xmcd
#
# Track frame offsets: 
#        150
#        14949
#        31423
#        49004
#        54993
#        73008
#        99272
#        115152
#        135852
#        150361
#
# Disc length: 2188 seconds
#
# Revision: 0
# Processed by: cddbd v1.5.2PL0 Copyright (c) Steve Scherf et al.
# Submitted via: ExactAudioCopyFreeDBPlugin 1.0
#
DISCID=78088a0a
DTITLE=Janet Robin - Take Me As I Am
DYEAR=2016
DGENRE=Blues
TTITLE0=I'm a rich girl
TTITLE1=Leave it to me
TTITLE2=On my feet again
TTITLE3=Prelude to a dream
TTITLE4=Take me as I am
TTITLE5=World cry
TTITLE6=Dancing barefoot
TTITLE7=Can't have me now
TTITLE8=Ol man
TTITLE9=Outlaw
EXTD=
EXTT0=
EXTT1=
EXTT2=
EXTT3=
EXTT4=
EXTT5=
EXTT6=
EXTT7=
EXTT8=
EXTT9=
PLAYORDER=
